<svg width="137" height="24" viewBox="0 0 137 24" fill="none" xmlns="http://www.w3.org/2000/svg">
<path d="M11.9522 2.89121C11.9522 0.963538 10.4368 -8.60055e-08 7.40592 -8.60055e-08H4.58279C1.5275 -8.60055e-08 -8.98008e-09 0.963538 -8.98008e-09 2.89121V9.32508C-8.98008e-09 9.84066 0.263067 10.0988 0.789497 10.0988C1.32799 10.0988 1.59724 9.84126 1.59724 9.32686V2.90841C1.59724 1.9873 2.50297 1.52689 4.31443 1.52689H7.67428C9.4369 1.52689 10.3182 1.97365 10.3182 2.86747V9.32686C10.3182 9.82761 10.5966 10.0783 11.1533 10.0783C11.6856 10.0783 11.9522 9.82702 11.9522 9.32508V2.89121Z" transform="translate(19.6685 17.4556) scale(1.33333 -1.33333)" fill="#373546"/>
<path d="M11.0527 5.47686H3.5473C2.27168 5.47686 1.63402 5.03128 1.63402 4.14013V2.78293C1.63402 1.94547 2.31464 1.52689 3.67618 1.52689H9.08467C10.3968 1.52689 11.0527 2.16173 11.0527 3.43112V5.47686ZM12.6134 2.90545C12.6134 0.968284 11.3402 3.16862e-08 8.79453 3.16862e-08H4.02105C1.34035 3.16862e-08 -2.42462e-07 0.932389 -2.42462e-07 2.79746V4.10453C-2.42462e-07 6.03754 1.30975 7.00374 3.92924 7.00374H11.0344C10.9241 7.96758 10.2632 8.44965 9.05142 8.44965H7.0684C6.67674 8.44965 6.48106 8.70358 6.48106 9.21264C6.48106 9.68077 6.67674 9.91542 7.0684 9.91542H8.79453C11.3402 9.91542 12.6134 8.92637 12.6134 6.94886V2.90545Z" transform="translate(38.2731 17.4553) scale(1.33333 -1.33333)" fill="#373546"/>
<path d="M11.8054 0.812837C11.8054 0.27055 11.5329 -2.82913e-09 10.9885 -2.82913e-09C10.4436 -2.82913e-09 10.1714 0.27144 10.1714 0.81432V7.32977C10.1714 8.14409 9.43248 8.5514 7.95471 8.5514H3.86892C2.37909 8.5514 1.63402 8.14409 1.63402 7.32977V0.81432C1.63402 0.27144 1.36154 -2.82913e-09 0.816864 -2.82913e-09C0.27219 -2.82913e-09 1.52661e-07 0.27055 1.52661e-07 0.812837V7.31464C1.52661e-07 9.11623 1.43569 10.0172 4.30796 10.0172H7.46094C10.3573 10.0172 11.8054 9.11623 11.8054 7.31464V0.812837Z" transform="translate(57.8814 17.5913) scale(1.33333 -1.33333)" fill="#373546"/>
<path d="M3.10267 8.5514V0.81432C3.10267 0.27144 2.83666 -6.33725e-08 2.30434 -6.33725e-08C1.74731 -6.33725e-08 1.46865 0.27144 1.46865 0.81432V8.5514H0.670911C0.223343 8.5514 9.65359e-08 8.80534 9.65359e-08 9.3144C9.65359e-08 9.78282 0.223343 10.0172 0.670911 10.0172H1.46865V12.3943C1.46865 12.9271 1.7532 13.1935 2.32288 13.1935C2.84254 13.1935 3.10267 12.9271 3.10267 12.3943V10.0172H6.35247C6.80533 10.0172 7.03191 9.77599 7.03191 9.29452C7.03191 8.79881 6.80533 8.5514 6.35247 8.5514H3.10267Z" transform="translate(75.0905 17.5913) scale(1.33333 -1.33333)" fill="#373546"/>
<path d="M1.63402 5.61955H10.3918V7.096C10.3918 7.99813 9.76117 8.44965 8.50056 8.44965H4.13081C2.46619 8.44965 1.63402 7.97114 1.63402 7.01413V5.61955ZM11.9705 4.90402C11.9705 4.36292 11.7254 4.09266 11.236 4.09266H1.63402V2.86035C1.63402 1.97157 2.46619 1.52718 4.13081 1.52718H5.91196C6.37689 1.52718 6.60965 1.27918 6.60965 0.784358C6.60965 0.261354 6.37689 -2.35384e-07 5.91196 -2.35384e-07H4.55307C1.5175 -2.35384e-07 7.85757e-09 1.02257 7.85757e-09 3.06801V6.88805C7.85757e-09 8.90649 1.49925 9.91542 4.49805 9.91542H8.17011C10.7037 9.91542 11.9705 9.03613 11.9705 7.27785V4.90402Z" transform="translate(85.5188 17.4556) scale(1.33333 -1.33333)" fill="#373546"/>
<path d="M5.78649 6.14878L10.2845 9.95606C10.4558 10.1053 10.627 10.18 10.7986 10.18C11.019 10.18 11.2053 10.0887 11.3589 9.90533C11.5116 9.722 11.5881 9.51494 11.5881 9.28443C11.5881 9.05334 11.478 8.84983 11.2576 8.67362L7.03473 5.11049L11.2576 1.50671C11.4289 1.3572 11.5148 1.17387 11.5148 0.957012C11.5148 0.725917 11.4442 0.509061 11.3036 0.305259C11.1629 0.101753 10.9943 2.12751e-07 10.7986 2.12751e-07C10.6762 2.12751e-07 10.5352 0.0747572 10.3763 0.223975L5.78649 4.05172L1.21487 0.223975C1.09217 0.0884034 0.951216 0.020469 0.792316 0.020469C0.59634 0.020469 0.428023 0.118959 0.287662 0.315642C0.146711 0.512324 0.0766781 0.725917 0.0766781 0.957012C0.0766781 1.16052 0.162013 1.34385 0.333566 1.50671L4.53794 5.11049L0.333566 8.67362C0.223513 8.76825 0.13759 8.85992 0.0766781 8.94832C0.0151779 9.03643 -0.00924565 9.14857 0.00311324 9.28443C0.00311324 9.54193 0.0790318 9.749 0.232635 9.90533C0.38565 10.0611 0.566031 10.1394 0.774072 10.1394C0.847637 10.1394 0.936209 10.1257 1.04038 10.0988C1.14425 10.0715 1.23312 10.024 1.30639 9.95606L5.78649 6.14878Z" transform="translate(103.287 17.6458) scale(1.33333 -1.33333)" fill="#9795AD"/>
<path d="M11.0527 5.47686H3.5473C2.27168 5.47686 1.63402 5.03128 1.63402 4.14013V2.78293C1.63402 1.94547 2.31464 1.52689 3.67618 1.52689H9.08467C10.3968 1.52689 11.0527 2.16173 11.0527 3.43112V5.47686ZM12.6134 2.90545C12.6134 0.968284 11.3402 3.16862e-08 8.79423 3.16862e-08H4.02105C1.34035 3.16862e-08 -2.42462e-07 0.932389 -2.42462e-07 2.79746V4.10453C-2.42462e-07 6.03754 1.30975 7.00374 3.92895 7.00374H11.0344C10.9241 7.96758 10.2632 8.44965 9.05142 8.44965H7.0687C6.67674 8.44965 6.48106 8.70358 6.48106 9.21264C6.48106 9.68077 6.67674 9.91542 7.0687 9.91542H8.79423C11.3402 9.91542 12.6134 8.92637 12.6134 6.94886V2.90545Z" transform="translate(120.182 17.4553) scale(1.33333 -1.33333)" fill="#9795AD"/>
<path d="M10.8142 3.24079H12.5768V5.55262H10.8142V3.24079ZM4.64536 10.5967C1.54858 10.5967 -1.83912e-08 9.50359 -1.83912e-08 7.31843V3.22623C-1.83912e-08 1.08141 1.53018 0.00922507 4.59019 0.00922507H6.18419H6.51566H8.84157V1.61794H6.51566H6.18419H4.38803C2.61335 1.61794 1.72633 2.15382 1.72633 3.22623V7.31843C1.72633 8.44483 2.61335 9.00884 4.38803 9.00884H8.35406C9.99397 9.00884 10.814 8.49951 10.814 7.48139V4.90665H12.5766V7.33885C12.5766 9.51037 11.0771 10.5967 8.07862 10.5967H4.64536ZM8.06023 -1.52094e-07C8.33949 -1.52094e-07 8.60138 0.0124593 8.85473 0.0311486V1.62983C8.69171 1.61618 8.51957 1.60847 8.33566 1.60847H7.96842V-1.52094e-07H8.06023Z" transform="translate(0 17.3997) scale(1.33333 -1.33333)" fill="#373546"/>
<path fill-rule="evenodd" clip-rule="evenodd" d="M6.50107 2.00955C5.79809 1.23171 4.99064 0.554449 4.10433 -4.97927e-08L-1.21231e-07 6.67594C0.282489 6.85364 0.538495 7.06901 0.76066 7.31523L6.50107 2.00955Z" transform="translate(13.0383 24) scale(1.33333 -1.33333)" fill="#59978A"/>
<path d="M5.40903 13.2141C3.96474 13.1445 2.89505 12.9172 2.03691 12.4977C0.841029 11.9131 0.187636 11.002 0.0305665 9.70019C0.00640778 9.49996 0.000590647 8.90804 5.21524e-05 6.596C-0.000536366 3.65617 0.00240511 3.53335 0.0872577 3.10626C0.409013 1.48618 1.73003 0.473321 3.97068 0.128719C4.74908 0.00900526 4.66489 0.0115349 8.17255 0.0024905C10.5147 -0.00354941 11.5285 0.00115541 11.7896 0.0192633C13.2931 0.123546 14.4274 0.52808 15.1069 1.20231C15.5694 1.66116 15.8372 2.22289 15.9445 2.95919C15.9859 3.24317 15.9845 6.86001 15.9431 7.04322C15.8554 7.42934 15.6312 7.66605 15.2831 7.73995C15.2013 7.75732 13.3754 7.76396 8.68375 7.76396H2.1975L2.19778 8.67291C2.19808 9.70009 2.2057 9.77068 2.34483 10.0552C2.5803 10.5367 3.11098 10.8634 3.93382 11.0336C4.4614 11.1427 4.5591 11.1478 6.3907 11.163C8.26761 11.1786 8.22612 11.1758 8.43751 11.3007C8.56444 11.3757 8.69598 11.5314 8.74578 11.6656C8.80777 11.8327 8.84102 12.0957 8.82501 12.2926C8.781 12.834 8.57892 13.1066 8.15431 13.1974C8.04045 13.2217 7.76871 13.2269 6.77481 13.224C6.09407 13.222 5.47948 13.2175 5.40906 13.2141H5.40903ZM13.8439 4.56381C13.8368 3.4534 13.8346 3.40078 13.79 3.23964C13.714 2.96557 13.6087 2.78616 13.4021 2.57846C13.0934 2.26817 12.7331 2.11272 12.0718 2.00437C11.8771 1.97249 11.5091 1.96777 8.65269 1.96059C5.40348 1.95243 4.87581 1.96122 4.36992 2.03189C3.3105 2.1799 2.63931 2.54522 2.3565 3.12777C2.20949 3.43059 2.21063 3.41958 2.20253 4.62835L2.19523 5.72017H8.02328H13.8513L13.8439 4.56381Z" transform="translate(85.5133 4.23804)" fill="#9795AD"/>
<path d="M0.000387928 1.44995C0.000540943 1.40358 0.00127214 1.28873 0.00186066 1.19472C0.00244918 1.10071 0.00362492 0.917416 0.00421344 0.787397C0.00480196 0.657378 0.00568136 0.535878 0.00626988 0.517395C0.00956558 0.426983 0.0132451 0.359509 0.0190126 0.283314C0.0207782 0.258457 0.0226916 0.233688 0.0230447 0.228271C0.0278999 0.149501 0.0353422 0.0640998 0.0414628 0.0162567C0.0423456 0.00895303 0.0432319 0.00230472 0.0432319 0.00148298C0.0432319 0.000266694 0.244188 5.19147e-07 1.13808 5.19147e-07H2.23293V0.0663425C2.23293 0.125176 2.23268 0.134654 2.23058 0.150097C2.21825 0.246572 2.21145 0.395596 2.20754 0.654728C2.20548 0.782035 2.20065 1.39341 2.20062 1.50443V1.53427H1.10031H1.78452e-06L0.000280167 1.44996L0.000387928 1.44995Z" transform="translate(85.5142 7.59497)" fill="#9795AD"/>
<path d="M2.34488e-06 0.378684V0.0666111L0.0351863 0.0628555C0.119168 0.0538935 0.219415 0.0457591 0.308055 0.040713C0.319737 0.0400604 0.333177 0.0392298 0.337932 0.0389332C0.370191 0.0367676 0.505374 0.0310835 0.586213 0.0285115C0.616242 0.0275622 0.649346 0.026257 0.659778 0.0256043C0.692135 0.0236167 0.762707 0.0199381 0.814379 0.0175263C0.967338 0.0103888 1.08359 0.00667475 1.29427 0.00219525C1.33518 0.00133495 1.66357 0.000771191 2.31356 0.000444869L3.27249 1.3033e-07V0.34538V0.69076H1.63624H2.34488e-06V0.378684Z" transform="translate(89.9432 4.23438)" fill="#9795AD"/>
<path d="M7.87373e-07 0.319253V6.88406e-08L1.00951 6.85875e-06C1.61389 1.10119e-05 2.04784 0.000481341 2.09085 0.00113398C2.1976 0.00282492 2.32985 0.00630785 2.39948 0.00929517C2.41401 0.00991815 2.44764 0.0109267 2.47419 0.0115497C2.66719 0.0160559 2.71577 0.0178863 2.79891 0.0237749C2.94557 0.0341638 3.10661 0.0494148 3.25467 0.0669418L3.27191 0.0689887L3.2722 0.353742L3.27249 0.638495H1.63624H7.87373e-07V0.319253Z" transform="translate(94.5286 4.23486)" fill="#9795AD"/>
<path d="M3.98859e-06 0.395155V-2.03878e-08H1.63625H3.27249V0.395155V0.790309H1.63625H3.98859e-06V0.395155Z" transform="translate(91.7841 4.23413)" fill="#9795AD"/>
<path d="M4.4886e-06 0.767133V5.20089e-07H1.09026H2.18051V0.0344752C2.18051 0.082968 2.17845 0.302928 2.17695 0.411958C2.17636 0.462308 2.17518 0.608579 2.17489 0.737005C2.1743 0.87173 2.17341 0.980308 2.17282 0.99368C2.17106 1.02911 2.16936 1.05274 2.16694 1.07943C2.16203 1.13376 2.16121 1.14452 2.15947 1.17619C2.15606 1.23834 2.1544 1.25109 2.14508 1.28858C2.12477 1.37016 2.09912 1.44234 2.06524 1.51312L2.05512 1.53427H1.02769H0.000264911L4.4886e-06 0.767133Z" transform="translate(99.3055 10.0203)" fill="#9795AD"/>
<path d="M0.000112238 0.949748V-2.29952e-07H2.20857H4.41704L4.41528 0.152383C4.41439 0.236195 4.41262 0.443477 4.41151 0.613011C4.41033 0.782545 4.40833 0.935334 4.40703 0.952543C4.40586 0.969752 4.40318 1.00156 4.40132 1.02323C4.39956 1.0449 4.39685 1.08036 4.39553 1.10203C4.39232 1.15361 4.38976 1.17274 4.38146 1.20632C4.34569 1.35137 4.29117 1.47133 4.21409 1.57459C4.10313 1.72322 3.95201 1.82129 3.75985 1.8694C3.7356 1.87547 3.71915 1.87802 3.69318 1.87972C3.6742 1.88097 3.64111 1.88407 3.61961 1.88661C3.54809 1.89507 3.52622 1.89612 3.39892 1.89712C3.32938 1.89768 2.53618 1.89843 1.63625 1.89881L4.47711e-06 1.89949L0.000112238 0.949748Z" transform="translate(97.0699 10.1021)" fill="#9795AD"/>
<path d="M4.79263e-05 0.438094V-3.03536e-07L0.0445891 0.000682082C0.0690715 0.00103807 0.156632 0.00186837 0.239134 0.00252102C0.724458 0.00628261 1.10174 0.0114928 1.24375 0.0163905C1.26176 0.0170135 1.3016 0.0176364 1.33226 0.0177847C1.37883 0.0180051 1.38328 0.0181402 1.35927 0.0186742C1.34347 0.0190302 1.33482 0.0194462 1.34003 0.0195648C1.35969 0.0200988 1.42614 0.023445 1.46126 0.025661C1.4813 0.0269367 1.50071 0.0277072 1.50436 0.0274106C1.50943 0.0269952 1.51019 0.0271146 1.50757 0.0278859C1.50522 0.0285978 1.50669 0.0287167 1.51263 0.0282718C1.51752 0.0278861 1.52087 0.0280537 1.52049 0.0286565C1.5202 0.0292202 1.52196 0.0297248 1.52464 0.0297248C1.52729 0.029747 1.54053 0.030941 1.55413 0.0323649C1.69512 0.047263 1.75311 0.0629743 1.83172 0.10757C1.89969 0.146127 1.92982 0.166603 1.97241 0.203176C1.994 0.221735 2.03342 0.260999 2.05357 0.284033C2.10222 0.339667 2.14209 0.398383 2.16962 0.454957C2.18295 0.482362 2.19005 0.500049 2.20074 0.532597C2.23178 0.627056 2.25313 0.73686 2.26624 0.869521L2.26683 0.876184H1.13341H3.02593e-06L4.79263e-05 0.438094Z" transform="translate(92.0693 15.4016)" fill="#9795AD"/>
<path d="M0.000118549 0.438146V7.315e-09L0.0509817 0.000741239C0.0789658 0.00115656 0.194433 0.00225466 0.307597 0.00317429C0.763848 0.00692402 1.0428 0.0107926 1.22598 0.0159099C1.25947 0.0168592 1.30551 0.01763 1.32828 0.01763C1.36959 0.0176496 1.40663 0.0187869 1.44038 0.0211008C1.46062 0.0224951 1.51279 0.0274999 1.52486 0.0292294C1.52928 0.0298524 1.54585 0.0317217 1.56165 0.0333385C1.673 0.0447923 1.73563 0.0595957 1.79602 0.0887362C1.82297 0.101742 1.87864 0.134048 1.90751 0.153423C2.01176 0.223412 2.11557 0.343254 2.17078 0.457383C2.18288 0.482382 2.18988 0.499865 2.2 0.530388C2.23135 0.624758 2.25156 0.728113 2.26635 0.869629L2.26694 0.876292H1.13347H1.80751e-06L0.000118549 0.438146Z" transform="translate(92.0692 15.4016)" fill="#9795AD"/>
<path d="M0.0837082 1.53282C0.0828254 1.53009 0.0682557 1.45261 0.0624882 1.41954C0.04651 1.32772 0.0301146 1.21159 0.0245384 1.15087C0.0208308 1.1105 0.0173601 1.0518 0.0147412 0.98557C0.0144469 0.976008 0.0129727 0.950197 0.0117957 0.928208C0.00332102 0.774392 0.00282635 0.744662 0.00206128 0.352859C0.00176702 0.175676 0.00117706 0.0237993 0.000588544 0.0153547L-4.14089e-06 4.9235e-07H1.09733H2.19465L2.19466 0.233791C2.19471 0.797327 2.20034 1.00395 2.22 1.16101C2.23353 1.26922 2.25566 1.35018 2.29823 1.44722L2.30615 1.46528V1.49977V1.53427H1.19517C0.307425 1.53427 0.0840844 1.53397 0.0836812 1.53281L0.0837082 1.53282Z" transform="translate(85.5162 12.7537)" fill="#9795AD"/>
</svg>
